<svg width="120" height="120" viewBox="0 0 120 120" fill="none" xmlns="http://www.w3.org/2000/svg">
<path d="M5.13716 0.244612C3.14258 0.737433 1.3724 2.82605 0.524699 5.66564C0.026054 7.37878 -0.173404 13.1988 0.175647 16.4138C1.49706 28.3354 7.03201 44.223 12.8662 52.9765C14.8358 55.9568 16.606 57.8812 19.1242 59.8759C25.6065 65.0154 31.3908 67.3856 37.3496 67.3856C40.6905 67.3856 43.458 66.752 47.4721 65.0623C47.6716 64.9919 47.7962 66.001 47.896 68.3008C48.1203 73.2056 48.993 76.4676 51.3366 81.1376C54.4531 87.3566 59.7637 92.7307 66.1962 96.11C79.9837 103.432 97.3615 101.437 108.731 91.2522C113.268 87.1923 116.36 82.663 118.255 77.3359C119.751 73.1117 120 71.469 120 66.3765C119.975 62.5982 119.9 61.4248 119.451 59.5709C116.235 46.0066 105.489 35.9155 91.1285 33.0055C89.0342 32.583 87.7875 32.4892 83.9729 32.4892C78.8867 32.4892 76.1941 32.8881 72.2548 34.2023C71.1577 34.5543 70.2602 34.789 70.2602 34.6951C70.2602 34.5778 70.4846 33.8503 70.7339 33.0289C73.3019 25.1438 74.9973 15.0527 74.6233 9.93675C74.2992 5.6187 73.252 2.91993 71.2575 1.30066C69.0385 -0.482885 66.645 -0.43595 62.2819 1.46493C57.5697 3.53009 54.1789 4.42185 47.5718 5.29015C43.1588 5.87685 31.2911 5.87685 26.8781 5.29015C20.645 4.46879 16.3816 3.36581 12.5919 1.58227C9.47537 0.103806 7.28134 -0.295144 5.13716 0.244612ZM10.9464 4.70346C15.3594 6.72168 19.0494 7.73079 25.6315 8.69297C28.7729 9.13885 30.2439 9.20925 36.9756 9.20925C45.3279 9.23272 48.0705 8.99804 53.755 7.80119C57.6195 6.97983 59.9133 6.25233 63.1296 4.84427C64.9995 3.99943 66.271 3.60049 67.1935 3.53009C68.4152 3.43621 68.5648 3.48315 69.2629 4.18718C70.6092 5.52484 70.8835 6.97983 70.8586 12.2835C70.8586 16.273 70.7588 17.5168 70.1854 20.6145C69.3626 24.9795 68.1659 29.6731 66.7697 33.8503L65.7225 36.948L64.2016 37.8633C56.4477 42.5803 50.2895 51.0052 48.5442 59.3127L48.245 60.7677L45.7269 61.9176C39.6932 64.7337 34.3578 64.7572 28.5236 62.035C23.9859 59.8994 18.825 55.6518 16.2569 51.9439C9.42551 42.0405 3.44177 23.3133 3.44177 11.8142C3.44177 10.2418 3.56643 8.34095 3.71603 7.58999C4.01521 6.01765 4.96264 4.09331 5.61088 3.71783C6.4835 3.22501 8.50302 3.57701 10.9464 4.70346ZM87.9621 36.1032C92.0011 36.596 96.5138 38.0041 99.8049 39.7876L101.401 40.6559L98.9821 43.0262C94.1453 47.7432 90.9539 53.5866 89.5328 60.2045C88.8596 63.3961 88.9344 69.9436 89.6824 73.1821C91.2033 79.8704 94.245 85.3384 99.1068 90.0788C100.852 91.8154 101.351 92.4256 101.126 92.6133C100.378 93.1766 96.1398 95.0305 94.0705 95.6876C92.8239 96.0631 90.8043 96.5559 89.5827 96.7671C86.6656 97.2365 81.2802 97.2365 78.3632 96.7671C75.4461 96.2743 71.3821 95.007 69.0136 93.8102C65.9469 92.2613 66.0217 92.5664 68.2905 90.3604C75.5707 83.2732 79.1361 74.5198 78.6623 64.8511C78.2385 56.5435 74.8976 49.1747 68.7642 43.0966C67.5426 41.8528 66.5203 40.7967 66.5203 40.7263C66.5203 40.4916 70.1106 38.7316 72.0304 38.0041C76.9919 36.1736 82.7512 35.4696 87.9621 36.1032ZM65.4233 44.7393C68.8141 47.8605 71.0081 50.9817 72.7783 55.0885C74.4987 59.1484 74.8477 61.0963 74.8726 66.4938C74.8726 71.6567 74.6233 72.9709 73.0027 77.1951C71.5317 81.0672 68.3653 85.5496 64.9496 88.6238C63.5783 89.8442 63.2044 90.0554 62.8304 89.8676C62.581 89.7503 61.5339 88.8116 60.4867 87.779C49.0927 76.538 48.2699 59.3362 58.5919 47.2738C59.7886 45.8892 63.0049 42.9088 63.3041 42.9088C63.4038 42.9088 64.3512 43.7302 65.4233 44.7393ZM107.185 45.1852C110.675 48.5645 113.218 52.4367 114.739 56.5435C117.806 64.9919 116.784 74.5198 111.947 82.1702C110.526 84.4466 107.459 87.9667 105.739 89.3279L104.442 90.337L102.348 88.3892C90.929 77.8287 89.2586 61.8472 98.2092 49.2216C99.8548 46.9218 103.819 42.9088 104.467 42.9088C104.667 42.9088 105.888 43.9414 107.185 45.1852Z" fill="white"/>
<path d="M17.1046 15.827C14.1127 16.4841 11.3203 18.4319 9.74959 20.896C8.9019 22.1867 7.92954 25.2845 7.92954 26.6221C7.92954 28.3822 9.10135 29.2974 10.6222 28.6873C11.445 28.3587 11.5447 28.1475 11.794 25.9885C12.1182 23.1724 14.2125 20.4736 16.8054 19.5349C17.703 19.2063 18.6753 19.089 20.3957 19.089C22.5897 19.089 22.9138 19.1594 24.4347 19.8634C27.1024 21.1072 28.4238 22.9377 28.9973 26.2701C29.1718 27.3262 29.4959 28.3353 29.6954 28.5465C30.2688 29.0628 31.5404 28.9924 32.1886 28.4057C32.6873 27.9128 32.7122 27.819 32.4379 25.7538C31.4656 18.5258 24.6092 14.0904 17.1046 15.827Z" fill="white"/>
<path d="M51.8101 15.7098C51.0621 15.8272 49.616 16.2965 48.6188 16.7424C45.1781 18.2678 43.0339 21.0135 42.1862 24.9326C41.5879 27.7018 42.0117 28.8986 43.5824 28.8986C44.7792 28.8986 45.2529 28.2885 45.4524 26.5284C45.8263 23.2664 47.3721 20.9666 50.015 19.7463C51.2865 19.1596 51.6854 19.0892 54.054 19.0892C56.4475 19.0892 56.7965 19.1361 58.1179 19.7697C60.7109 21.0135 62.3813 23.3837 62.6805 26.2703C62.88 28.1242 63.0794 28.4762 63.977 28.7813C64.9743 29.1099 66.196 28.5936 66.4204 27.7487C66.919 25.8713 65.3233 21.3421 63.4285 19.3004C60.8355 16.4843 56.0486 15.0058 51.8101 15.7098Z" fill="white"/>
<path d="M25.5068 40.0927C24.9084 40.7029 24.9832 43.0731 25.6314 45.0913C26.9279 49.0573 30.1691 51.7796 34.6818 52.6948C42.0368 54.1498 48.9431 49.4094 49.716 42.3221C49.8656 40.9141 49.8406 40.7263 49.3171 40.21C48.594 39.4825 47.3474 39.4356 46.6992 40.0927C46.4 40.3978 46.1507 41.1722 46.026 42.1578C45.6271 45.3494 43.5577 48.0013 40.6157 49.0339C38.4965 49.7848 35.2553 49.6206 33.2607 48.6584C30.7176 47.4615 29.3214 45.3964 28.8477 42.2517C28.6981 41.2661 28.3989 40.257 28.1995 40.0223C27.6509 39.4591 26.0802 39.4825 25.5068 40.0927Z" fill="white"/>
<path d="M37.2 73.5575C36.7761 73.7452 35.6043 74.7074 34.5821 75.693C31.5154 78.65 29.2466 80.105 24.3848 82.3109C18.077 85.1505 13.29 86.3239 7.80488 86.3943C4.81301 86.4412 4.16478 86.5116 3.31708 86.9341C1.12304 88.0136 0.499738 90.7828 1.69649 94.1856C3.41681 99.0668 7.97941 105.52 13.639 111.035C20.3458 117.583 25.3572 119.977 32.2385 120C35.7041 120 37.574 119.531 40.0173 118.029C43.832 115.658 47.1729 110.871 48.245 106.271C48.8932 103.455 48.8932 93.5285 48.245 89.6094C46.8737 81.0906 44.2309 75.0359 41.3138 73.6514C40.1669 73.0881 38.297 73.0412 37.2 73.5575ZM40.3913 77.3358C41.2639 78.2041 42.1366 79.9407 42.9095 82.2171C43.4829 83.9771 44.3306 87.3565 44.3306 87.9901C44.3306 88.1309 43.832 87.7085 43.2087 87.0749C41.5382 85.3382 39.7431 84.5638 37.3496 84.5873C33.9837 84.6108 31.1165 86.1831 29.6705 88.7645C29.0721 89.8206 28.9973 90.2195 29.0222 92.0735C29.0471 94.4906 29.5209 95.8283 30.4932 96.1803C31.291 96.4619 32.2135 96.1334 32.7122 95.4294C33.0612 94.9365 33.0612 94.7253 32.7371 93.5989C31.8396 90.5246 33.9339 87.9666 37.2748 87.9666C38.6461 87.9666 39.7181 88.4829 40.6157 89.6094C42.3859 91.8153 43.0092 92.0969 44.1561 91.2521L44.7794 90.7828L44.929 91.5572C45.0038 91.9561 45.1534 94.3733 45.2282 96.8844C45.4775 103.807 44.929 106.788 42.6851 110.378C41.1891 112.748 38.9452 114.908 36.9756 115.776C35.6791 116.363 35.1057 116.48 32.8368 116.55C28.7978 116.691 25.6065 115.823 22.0661 113.617C20.1214 112.396 14.4867 107.257 12.6168 104.957C11.5447 103.643 11.4949 103.526 12.0434 103.643C12.7913 103.76 13.8136 103.174 14.0379 102.493C14.1377 102.188 14.0379 101.461 13.7637 100.733C13.3897 99.7005 13.3648 99.3485 13.6141 98.574C14.1626 96.9078 15.5339 95.7814 17.5783 95.3824C19.3485 95.0069 21.2184 96.1099 22.4401 98.2455C23.213 99.6066 25.2076 99.4423 25.7561 97.9639C26.2547 96.6262 24.0856 93.857 21.5924 92.6132C20.7198 92.1674 20.1214 92.0735 18.2764 92.0735C16.2818 92.0735 15.8829 92.1439 14.5865 92.7775C12.7664 93.6223 10.8715 95.5467 10.323 97.0252C9.87426 98.2689 9.79946 100.123 10.1485 101.296C10.2732 101.695 10.348 102.047 10.2981 102.047C10.0737 102.047 7.00705 97.2833 6.0347 95.4059C4.78808 92.9652 4.28944 90.5715 4.96261 90.1726C5.16207 90.0553 6.70786 89.9379 8.42819 89.9379C17.5783 89.8441 30.3686 84.7985 36.6764 78.7908C37.8732 77.6409 39.045 76.7022 39.2943 76.7022C39.5436 76.7022 40.0423 76.9838 40.3913 77.3358Z" fill="white"/>
<path d="M35.8786 100.428C35.4049 100.85 35.3301 101.085 35.4548 101.789C35.8786 104.229 35.8786 104.628 35.6044 105.426C35.1805 106.623 33.3355 108.078 31.9892 108.289C31.3908 108.36 30.568 108.36 30.1193 108.266C29.122 108.055 27.7258 106.928 27.1274 105.802C26.2797 104.253 24.5345 104.136 23.6618 105.591C23.3377 106.13 23.3626 106.295 23.8862 107.351C24.6591 108.806 26.155 110.237 27.7507 110.965C29.4461 111.763 32.8867 111.786 34.6569 111.035C37.2499 109.932 39.1946 107.468 39.5187 104.887C39.6932 103.502 39.2195 101.319 38.5713 100.545C37.9231 99.7706 36.6764 99.7237 35.8786 100.428Z" fill="white"/>
</svg>
