<svg width="24" height="26" viewBox="0 0 24 26" fill="none" xmlns="http://www.w3.org/2000/svg">
<g clip-path="url(#clip0_170_919)">
<path d="M23 11.7383H1C0.447715 11.7383 0 12.2159 0 12.8051C0 13.3942 0.447715 13.8719 1 13.8719H23C23.5523 13.8719 24 13.3942 24 12.8051C24 12.2159 23.5523 11.7383 23 11.7383Z" fill="white"/>
<path d="M23 4.26953H1C0.447715 4.26953 0 4.74714 0 5.33631C0 5.92548 0.447715 6.40309 1 6.40309H23C23.5523 6.40309 24 5.92548 24 5.33631C24 4.74714 23.5523 4.26953 23 4.26953Z" fill="white"/>
<path d="M23 19.207H1C0.447715 19.207 0 19.6846 0 20.2738C0 20.863 0.447715 21.3406 1 21.3406H23C23.5523 21.3406 24 20.863 24 20.2738C24 19.6846 23.5523 19.207 23 19.207Z" fill="white"/>
</g>
<defs>
<clipPath id="clip0_170_919">
<rect width="24" height="25.6028" fill="white" transform="translate(0 0.00390625)"/>
</clipPath>
</defs>
</svg>
