<svg width="30" height="30" viewBox="0 0 30 30" fill="none" xmlns="http://www.w3.org/2000/svg">
<circle cx="15" cy="15" r="15" fill="#4B6EB9"/>
<path d="M10.0909 6C8.74524 6 7.63636 7.10888 7.63636 8.45455V9.68182C7.63636 9.79032 7.59326 9.89437 7.51654 9.97109C7.43982 10.0478 7.33577 10.0909 7.22727 10.0909H6.81818C6.36633 10.091 6.00005 10.4572 6 10.9091V14.1818C6.00005 14.6337 6.36633 15 6.81818 15H7.22727C7.33577 15 7.43982 15.0431 7.51654 15.1198C7.59326 15.1965 7.63636 15.3006 7.63636 15.4091V22.3636C7.63636 23.256 8.38033 24 9.27273 24C10.1651 24 10.9091 23.256 10.9091 22.3636V21.9545C10.9091 21.9008 10.9197 21.8476 10.9402 21.798C10.9608 21.7484 10.9909 21.7033 11.0289 21.6653C11.0669 21.6273 11.112 21.5972 11.1616 21.5766C11.2113 21.556 11.2645 21.5455 11.3182 21.5455H18.6818C18.7355 21.5455 18.7887 21.556 18.8384 21.5766C18.888 21.5972 18.9331 21.6273 18.9711 21.6653C19.0091 21.7033 19.0392 21.7484 19.0598 21.798C19.0803 21.8476 19.0909 21.9008 19.0909 21.9545V22.3636C19.0909 23.256 19.8349 24 20.7273 24C21.6197 24 22.3636 23.256 22.3636 22.3636V15.4091C22.3636 15.3006 22.4067 15.1965 22.4835 15.1198C22.5602 15.0431 22.6642 15 22.7727 15H23.1818C23.6337 15 24 14.6337 24 14.1818V10.9091C24 10.4572 23.6337 10.091 23.1818 10.0909H22.7727C22.6642 10.0909 22.5602 10.0478 22.4835 9.97109C22.4067 9.89437 22.3636 9.79032 22.3636 9.68182V8.45455C22.3636 7.10888 21.2548 6 19.9091 6H10.0909ZM9.68182 10.0909H13.7727C13.9994 10.0909 14.1818 10.2734 14.1818 10.5V14.5909C14.1818 14.8175 13.9994 15 13.7727 15H9.68182C9.45518 15 9.27273 14.8175 9.27273 14.5909V10.5C9.27273 10.2734 9.45518 10.0909 9.68182 10.0909ZM16.2273 10.0909H20.3182C20.5448 10.0909 20.7273 10.2734 20.7273 10.5V14.5909C20.7273 14.8175 20.5448 15 20.3182 15H16.2273C16.0006 15 15.8182 14.8175 15.8182 14.5909V10.5C15.8182 10.2734 16.0006 10.0909 16.2273 10.0909ZM9.68182 16.6364H12.1364C12.363 16.6364 12.5455 16.8188 12.5455 17.0455V17.8636C12.5455 18.0903 12.363 18.2727 12.1364 18.2727H9.68182C9.45518 18.2727 9.27273 18.0903 9.27273 17.8636V17.0455C9.27273 16.8188 9.45518 16.6364 9.68182 16.6364ZM17.8636 16.6364H20.3182C20.5448 16.6364 20.7273 16.8188 20.7273 17.0455V17.8636C20.7273 18.0903 20.5448 18.2727 20.3182 18.2727H17.8636C17.637 18.2727 17.4545 18.0903 17.4545 17.8636V17.0455C17.4545 16.8188 17.637 16.6364 17.8636 16.6364Z" fill="white"/>
</svg>
