<svg width="18" height="18" viewBox="0 0 18 18" fill="none" xmlns="http://www.w3.org/2000/svg">
<path d="M4.09091 0C2.74524 0 1.63636 1.10888 1.63636 2.45455V3.68182C1.63636 3.79032 1.59326 3.89437 1.51654 3.97109C1.43982 4.04781 1.33577 4.09091 1.22727 4.09091H0.818182C0.366332 4.09096 4.74382e-05 4.45724 0 4.90909V8.18182C4.74382e-05 8.63367 0.366332 8.99995 0.818182 9H1.22727C1.33577 9 1.43982 9.0431 1.51654 9.11982C1.59326 9.19654 1.63636 9.30059 1.63636 9.40909V16.3636C1.63636 17.256 2.38033 18 3.27273 18C4.16512 18 4.90909 17.256 4.90909 16.3636V15.9545C4.90909 15.9008 4.91967 15.8476 4.94023 15.798C4.96079 15.7484 4.99092 15.7033 5.02891 15.6653C5.0669 15.6273 5.112 15.5972 5.16163 15.5766C5.21126 15.556 5.26446 15.5455 5.31818 15.5455H12.6818C12.7355 15.5455 12.7887 15.556 12.8384 15.5766C12.888 15.5972 12.9331 15.6273 12.9711 15.6653C13.0091 15.7033 13.0392 15.7484 13.0598 15.798C13.0803 15.8476 13.0909 15.9008 13.0909 15.9545V16.3636C13.0909 17.256 13.8349 18 14.7273 18C15.6197 18 16.3636 17.256 16.3636 16.3636V9.40909C16.3636 9.30059 16.4067 9.19654 16.4835 9.11982C16.5602 9.0431 16.6642 9 16.7727 9H17.1818C17.6337 8.99995 18 8.63367 18 8.18182V4.90909C18 4.45724 17.6337 4.09096 17.1818 4.09091H16.7727C16.6642 4.09091 16.5602 4.04781 16.4835 3.97109C16.4067 3.89437 16.3636 3.79032 16.3636 3.68182V2.45455C16.3636 1.10888 15.2548 0 13.9091 0H4.09091ZM3.68182 4.09091H7.77273C7.99936 4.09091 8.18182 4.27336 8.18182 4.5V8.59091C8.18182 8.81755 7.99936 9 7.77273 9H3.68182C3.45518 9 3.27273 8.81755 3.27273 8.59091V4.5C3.27273 4.27336 3.45518 4.09091 3.68182 4.09091ZM10.2273 4.09091H14.3182C14.5448 4.09091 14.7273 4.27336 14.7273 4.5V8.59091C14.7273 8.81755 14.5448 9 14.3182 9H10.2273C10.0006 9 9.81818 8.81755 9.81818 8.59091V4.5C9.81818 4.27336 10.0006 4.09091 10.2273 4.09091ZM3.68182 10.6364H6.13636C6.363 10.6364 6.54545 10.8188 6.54545 11.0455V11.8636C6.54545 12.0903 6.363 12.2727 6.13636 12.2727H3.68182C3.45518 12.2727 3.27273 12.0903 3.27273 11.8636V11.0455C3.27273 10.8188 3.45518 10.6364 3.68182 10.6364ZM11.8636 10.6364H14.3182C14.5448 10.6364 14.7273 10.8188 14.7273 11.0455V11.8636C14.7273 12.0903 14.5448 12.2727 14.3182 12.2727H11.8636C11.637 12.2727 11.4545 12.0903 11.4545 11.8636V11.0455C11.4545 10.8188 11.637 10.6364 11.8636 10.6364Z" fill="white"/>
</svg>
