<svg width="120" height="120" viewBox="0 0 120 120" fill="none" xmlns="http://www.w3.org/2000/svg">
<path d="M110.6 75.2212L107.39 77.0353L107.258 76.9213C104.501 74.1816 100.409 73.2801 96.756 74.6072L81.07 80.5574L42.038 74.2492C38.6776 73.714 35.2362 74.043 32.038 75.2052L23.86 78.7314C23.265 75.97 20.8246 73.9977 18 73.9952H6C2.68629 73.9952 0 76.6816 0 79.9954V107.996C0 111.31 2.68629 113.997 6 113.997H18C21.1482 113.983 23.7502 111.538 23.96 108.397C24.3996 108.388 24.8377 108.45 25.258 108.579L65.908 119.579C69.0002 120.503 72.3481 119.886 74.908 117.921L117.6 85.7056C119.111 84.4994 119.994 82.673 120 80.7394C119.993 79.6647 119.718 78.6087 119.2 77.6673C117.496 74.6233 113.651 73.5299 110.6 75.2212ZM98.144 78.3553C100.002 77.6974 102.065 77.9886 103.668 79.1354L91.734 85.8776C91.2274 84.1935 90.0386 82.7985 88.456 82.0315L98.144 78.3553ZM20 107.996C20 109.101 19.1046 109.997 18 109.997H6C4.89543 109.997 4 109.101 4 107.996V79.9954C4 78.8908 4.89543 77.9953 6 77.9953H18C19.1046 77.9953 20 78.8908 20 79.9954V107.996ZM115.154 82.5415L72.472 114.743C70.9154 115.937 68.8779 116.305 67.002 115.731L26.374 104.73C25.6044 104.498 24.8038 104.386 24 104.396V83.0255L33.496 78.9254C36.0271 78.02 38.7459 77.7689 41.4 78.1953L86.036 85.4096C87.1594 85.5941 87.9879 86.5592 88 87.6977C87.9971 87.9972 87.9387 88.2935 87.828 88.5717C87.256 89.9138 84.928 90.0098 84.904 90.0098H55.676L48 89.9958C46.8954 89.9958 46 90.8913 46 91.9959C46 93.1005 46.8954 93.9959 48 93.9959L55.138 94.0159L66.774 101.238C67.6782 101.745 68.6973 102.013 69.734 102.014C70.7506 102.014 71.7503 101.754 72.638 101.258L85.534 93.978C87.7889 93.8474 89.8565 92.6806 91.134 90.8178L112.552 78.7153C113.67 78.0976 115.076 78.4945 115.706 79.6054C115.898 79.9548 115.999 80.3468 116 80.7454C116 81.4403 115.689 82.0987 115.154 82.5415ZM77.328 94.0139L70.682 97.7661C70.0974 98.0933 69.3868 98.1024 68.794 97.7901L62.71 94.0139H77.328Z" fill="white"/>
<path d="M30.458 23.6432L44 29.1814V51.9943C44 58.5606 58.086 61.9947 72 61.9947C85.914 61.9947 100 58.5606 100 51.9943V29.1814L112 24.2732V36.1237C110.581 36.3786 109.448 37.4496 109.114 38.8518L108.076 43.662C107.858 44.7049 108.123 45.7905 108.796 46.6161C109.513 47.4948 110.59 48.0015 111.724 47.9941H116.276C117.41 48.0015 118.487 47.4948 119.204 46.6161C119.877 45.7905 120.142 44.7049 119.924 43.662L118.89 38.8618C118.557 37.4556 117.422 36.3806 116 36.1237V19.993C116.002 18.3888 115.029 16.9443 113.542 16.3429L75 0.592295C73.078 -0.197432 70.9221 -0.197432 69 0.592295L30.458 16.3429C28.9729 16.9466 28.0016 18.3899 28.0016 19.993C28.0016 21.5962 28.9729 23.0395 30.458 23.6432ZM96 51.9943C96 54.1104 86.888 57.9945 72 57.9945C57.112 57.9945 48 54.1104 48 51.9943V30.8175L69 39.3938C70.9269 40.1873 73.0891 40.1873 75.016 39.3938L96 30.8175V51.9943ZM112.096 43.994L112.958 39.9938H115.042L115.904 43.994H112.096ZM70.508 4.28444C71.4638 3.89104 72.5362 3.89104 73.492 4.28444L112.014 19.923V19.947L97.244 25.9933L97.202 26.0113L73.492 35.7017C72.5361 36.0946 71.4639 36.0946 70.508 35.7017L47.042 26.1673C46.8572 26.0523 46.6544 25.9691 46.442 25.9213L31.982 20.0471L70.508 4.28444Z" fill="white"/>
<path d="M14 81.9955H10C8.89543 81.9955 8 82.8909 8 83.9955C8 85.1002 8.89543 85.9956 10 85.9956H14C15.1046 85.9956 16 85.1002 16 83.9955C16 82.8909 15.1046 81.9955 14 81.9955Z" fill="white"/>
<path d="M14 101.996H10C8.89543 101.996 8 102.892 8 103.996C8 105.101 8.89543 105.996 10 105.996H14C15.1046 105.996 16 105.101 16 103.996C16 102.892 15.1046 101.996 14 101.996Z" fill="white"/>
</svg>
