<svg width="120" height="113" viewBox="0 0 120 113" fill="none" xmlns="http://www.w3.org/2000/svg">
<path d="M115.051 0H108.263C105.526 0 103.313 2.22498 103.313 4.9502V25.9253C103.313 27.4878 102.038 28.7752 100.463 28.7752H99.7756V25.5503C99.7756 21.3376 96.3507 17.9126 92.1507 17.9126H73.9631C69.9256 17.9126 66.6504 21.2003 66.6504 25.2378V28.7752H41.4251V25.5503C41.4251 21.3376 38.0002 17.9126 33.8002 17.9126H16.6876V4.9502C16.6876 2.22522 14.4626 0 11.7376 0H4.94996C2.21248 0 0 2.22498 0 4.9502V107.863C0 110.588 2.21248 112.801 4.94996 112.801H11.7374C14.4624 112.801 16.6874 110.588 16.6874 107.863V97.6254C16.6874 96.0504 17.9624 94.7754 19.5373 94.7754H100.463C102.038 94.7754 103.313 96.0504 103.313 97.6254V107.863C103.313 110.588 105.525 112.801 108.263 112.801H115.05C117.775 112.801 120 110.588 120 107.863V4.9502C120 2.22522 117.775 0 115.051 0ZM117.5 107.863C117.5 109.213 116.401 110.301 115.051 110.301H108.263C106.913 110.301 105.813 109.213 105.813 107.863V97.6254C105.813 94.6754 103.413 92.2755 100.463 92.2755H19.5376C16.5876 92.2755 14.1876 94.6754 14.1876 97.6254V107.863C14.1876 109.213 13.0876 110.301 11.7376 110.301H4.94996C3.59997 110.301 2.49998 109.213 2.49998 107.863V4.9502C2.49998 3.60021 3.59997 2.49998 4.94996 2.49998H11.7374C13.0874 2.49998 14.1874 3.59997 14.1874 4.9502V25.9253C14.1874 28.8752 16.5874 31.2752 19.5373 31.2752H66.6499V34.8377C66.6499 37.1002 68.4874 38.9377 70.7499 38.9377H95.6754C97.9504 38.9377 99.7754 37.0877 99.7754 34.8377V31.2752H100.463C103.413 31.2752 105.813 28.8752 105.813 25.9253V4.9502C105.813 3.60021 106.913 2.49998 108.263 2.49998H115.05C116.4 2.49998 117.5 3.59997 117.5 4.9502V107.863H117.5Z" fill="white"/>
<path d="M100.463 42.9626H19.5376C16.5876 42.9626 14.1876 45.3626 14.1876 48.3001V75.2503C14.1876 76.7128 14.7876 78.0503 15.7626 79.0253C16.7251 79.9878 18.0501 80.5878 19.5251 80.5878H66.6502V84.1625C66.6502 86.425 68.4877 88.2625 70.7502 88.2625H95.6754C97.9504 88.2625 99.7754 86.4125 99.7754 84.15V80.5878H104.563C105.25 80.5878 105.813 80.0253 105.813 79.3378V48.3003C105.813 45.3628 103.413 42.9626 100.463 42.9626ZM103.313 78.0881H99.7754V74.8754C99.7754 70.6629 96.3504 67.2379 92.1505 67.2379H73.9629C69.9254 67.2379 66.6502 70.5129 66.6502 74.5504V78.0881H41.4251V74.8754C41.4251 70.6629 38.0002 67.2379 33.8002 67.2379H16.6876V48.3003C16.6876 46.7378 17.9626 45.4628 19.5376 45.4628H100.463C102.038 45.4628 103.313 46.7378 103.313 48.3003V78.0881Z" fill="white"/>
</svg>
