<svg width="120" height="137" viewBox="0 0 120 137" fill="none" xmlns="http://www.w3.org/2000/svg">
<path d="M13.0562 110.277C5.85708 110.277 0 116.095 0 123.247V133.556C0 135.025 1.19905 136.216 2.67825 136.216H107.517C108.996 136.216 110.195 135.025 110.195 133.556V123.247C110.195 117.076 105.833 111.901 100.012 110.597C99.4787 108.913 98.6385 107.326 97.5046 105.874L94.7792 102.381C102.255 99.1872 108.728 93.7942 113.217 86.9589C118.263 79.2747 120.622 70.0452 119.859 60.9709C118.648 46.5623 109.885 33.8024 96.8961 27.4013C97.027 24.9715 96.1791 22.5004 94.3547 20.624L97.2437 17.7541C98.3482 16.6572 98.9564 15.1956 98.9564 13.6381C98.9564 12.0807 98.3482 10.619 97.244 9.52236L89.3704 1.70137C88.2662 0.604193 86.795 0 85.2272 0C83.6596 0 82.1882 0.604193 81.0839 1.70111L78.1946 4.57122C74.6312 1.15225 68.9343 1.18737 65.4174 4.68057L38.3467 31.5713C36.4382 30.6151 34.0468 30.9245 32.4551 32.5057L26.6939 38.2286C24.7101 40.1992 24.7101 43.4056 26.6939 45.3765L53.2764 71.7825C54.2355 72.7352 55.5133 73.2598 56.8741 73.2601C58.2352 73.2601 59.513 72.7352 60.472 71.7825L66.233 66.0595C67.1923 65.1066 67.7205 63.8375 67.7205 62.4855C67.7205 61.6793 67.5287 60.9046 67.1739 60.2068L80.4409 47.0279L81.3041 47.1705C89.2555 48.4842 95.2776 54.9747 95.9485 62.9542C96.6194 70.9335 91.7645 78.3265 84.1425 80.9321L78.5993 82.8272C75.627 80.8076 72.0252 79.9642 68.2315 80.479C63.9366 81.0622 60.3478 83.2574 58.0075 86.6418H20.5934C15.5732 86.6418 11.4892 90.699 11.4892 95.6858V102.069C11.4892 103.538 12.6882 104.73 14.1674 104.73H50.1876L47.9065 110.277H13.0562ZM104.839 123.247V130.895H5.35651V123.247C5.35651 119.029 8.81066 115.598 13.0562 115.598H97.139C101.385 115.598 104.839 119.029 104.839 123.247ZM85.2272 5.32095C85.3239 5.32095 85.4642 5.34569 85.5828 5.46381L93.4564 13.2848C93.5748 13.4024 93.5997 13.5418 93.5997 13.6379C93.5997 13.7339 93.5748 13.8733 93.4561 13.9914L90.57 16.8586L81.9854 8.33101L84.8718 5.46381C84.9899 5.34569 85.1302 5.32095 85.2272 5.32095ZM69.205 8.44301C70.6714 6.98667 73.0569 6.98667 74.5227 8.44301L76.3027 10.2112C76.303 10.2114 76.3032 10.212 76.3038 10.2122C76.3043 10.2125 76.3046 10.2128 76.3048 10.2133L90.457 24.2718C91.9231 25.7281 91.9231 28.0978 90.457 29.5539L63.5676 56.264L42.3162 35.1534L69.205 8.44301ZM56.8741 67.8314L30.6711 41.8027L36.0528 36.4567L62.2555 62.4857L56.8741 67.8314ZM85.8855 85.9636C95.8285 82.5643 102.162 72.9206 101.286 62.5115C100.491 53.0485 93.9253 45.1921 84.9446 42.5543L94.2446 33.316C94.5293 33.0332 94.7888 32.7347 95.028 32.4256C106.062 38.0823 113.482 49.0509 114.522 61.4133C115.869 77.436 106.396 92.3083 91.3727 98.0158L82.7924 87.0209L85.8855 85.9636ZM16.8457 99.4086V95.6858C16.8457 93.6327 18.5268 91.9627 20.5934 91.9627H55.4369L52.3754 99.4086H16.8457ZM61.3773 91.5878C62.7277 88.3043 65.4193 86.2315 68.9568 85.7513C72.4948 85.2708 75.6473 86.5505 77.8349 89.3536L93.2713 109.134C93.56 109.504 93.8171 109.886 94.0464 110.277H53.6929L61.3773 91.5878ZM70.1349 90.711C65.797 90.711 62.2676 94.2169 62.2676 98.5261C62.2676 102.835 65.7967 106.341 70.1349 106.341C74.4729 106.341 78.002 102.835 78.002 98.5261C78.002 94.2169 74.4729 90.711 70.1349 90.711ZM70.1349 101.02C68.7505 101.02 67.6241 99.9013 67.6241 98.5261C67.6241 97.1509 68.7505 96.0319 70.1349 96.0319C71.5193 96.0319 72.6455 97.1509 72.6455 98.5261C72.6455 99.9013 71.5193 101.02 70.1349 101.02Z" fill="white"/>
</svg>
