<svg width="143" height="141" viewBox="0 0 143 141" fill="none" xmlns="http://www.w3.org/2000/svg">
<path d="M37.7918 1.3564L37.043 1.93101V6.99303C37.043 9.75661 36.932 12.0277 36.8211 12.0277C36.7102 12.0277 35.1848 11.5625 33.4375 10.9606C31.6902 10.3859 29.0277 9.6198 27.5578 9.26409L24.8398 8.63476L24.091 9.20937L23.3145 9.75661L23.2312 24.3681L23.1758 39.0069L19.598 39.9919C17.6289 40.5392 14.7168 41.4968 13.0805 42.1262C10.1961 43.248 9.30859 43.9047 9.30859 44.9171C9.30859 45.3549 9.03125 45.4096 7.17305 45.4096C3.48437 45.4096 1.62617 46.2305 0.683203 48.2553C0.183984 49.3224 0.15625 50.7726 0.15625 81.5552C0.15625 111.818 0.183984 113.788 0.655469 114.308C1.4043 115.183 2.90195 115.211 3.76172 114.363C4.31641 113.815 4.31641 113.46 4.31641 81.9656C4.31641 54.9317 4.37187 50.0886 4.70469 49.815C4.9543 49.6234 5.86953 49.514 7.14531 49.5687L9.16992 49.6508L9.25312 90.4753L9.30859 131.3L10.0297 131.847L10.7785 132.422H71.1562H131.534L132.283 131.847L133.004 131.3L133.059 90.4753L133.143 49.6508L135.25 49.5687C136.804 49.514 137.441 49.5961 137.663 49.8697C137.913 50.1707 137.968 61.0335 137.941 93.4578L137.857 136.663L107.655 136.745C78.2285 136.8 77.4242 136.8 76.8695 136.28C75.5383 135.076 73.8465 134.474 71.5168 134.392C69.5199 134.282 69.0484 134.364 67.634 135.021C66.7465 135.404 65.7758 135.979 65.443 136.28C64.8883 136.8 64.2781 136.8 34.6578 136.745L4.45508 136.663L4.31641 130.561C4.17773 124.897 4.15 124.404 3.65078 124.049C2.84648 123.474 1.37656 123.556 0.710937 124.213C0.183984 124.733 0.15625 125.116 0.15625 130.917C0.15625 136.444 0.211719 137.21 0.683203 138.113C1.32109 139.372 1.95898 139.946 3.29023 140.493C4.17773 140.849 8.03281 140.904 35.3512 140.904H66.4137L67.3289 140.138C69.0762 138.66 69.5754 138.441 71.1562 138.441C72.7371 138.441 73.2363 138.66 74.9836 140.138L75.8988 140.904H106.961C134.28 140.904 138.135 140.849 139.022 140.493C140.354 139.946 140.991 139.372 141.629 138.113C142.129 137.128 142.156 135.732 142.156 93.2389C142.156 51.0463 142.129 49.3224 141.629 48.2553C140.714 46.2305 138.828 45.4096 135.195 45.4096H133.087L132.921 44.5888C132.699 43.549 131.922 43.0565 128.039 41.6884L124.822 40.5392L124.739 33.3976L124.684 26.2834L123.935 25.7362C123.38 25.271 122.825 25.1616 121.383 25.1616C118.97 25.1616 113.59 25.6267 110.179 26.1192C97.7812 27.9252 84.6352 33.2334 75.2609 40.2382C72.8758 42.0167 72.9867 42.0714 72.6816 39.2531C72.432 36.8453 71.2672 31.8653 70.2687 28.9376C65.7203 15.3385 56.9562 6.30897 44.2816 2.17727C39.8996 0.75443 38.7625 0.590256 37.7918 1.3564ZM46.4727 7.34873C50.9102 9.23673 55.4586 12.5476 58.5094 16.132C63.7512 22.2612 66.8297 29.4301 68.5492 39.5268C68.993 41.962 69.0484 45.7927 69.1316 75.3713C69.1871 93.5672 69.1871 108.398 69.1039 108.315C69.0207 108.261 68.2441 106.756 67.3289 105.032C65.1379 100.763 62.9746 97.781 59.6465 94.4975C55.3199 90.1743 50.0227 87.0276 43.8656 85.0576L41.2031 84.2093V44.835V5.4881L42.6453 5.9259C43.4496 6.1448 45.1691 6.80149 46.4727 7.34873ZM31.2742 14.5997C33.2988 15.2564 35.4344 15.9952 36.0168 16.2415L37.043 16.6793V51.6482C37.043 82.3761 37.0984 86.6719 37.459 87.1918C37.7363 87.5749 38.402 87.9032 39.4281 88.0948C40.2602 88.2589 42.0352 88.7788 43.3664 89.2166C54.1551 92.8011 61.8652 100.681 66.0254 112.447C67.0238 115.293 68.2441 119.808 68.05 119.999C67.9945 120.054 67.1348 119.014 66.1086 117.701C57.0672 105.853 44.4203 97.097 30.6641 93.1568L27.4746 92.2538L27.3914 52.8248C27.3637 31.1265 27.3914 13.3958 27.4746 13.3958C27.5578 13.3958 29.2773 13.943 31.2742 14.5997ZM120.579 40.1834C120.662 50.4717 120.69 51.1284 121.189 51.6756C121.882 52.4144 123.38 52.4417 124.129 51.703C124.628 51.2104 124.684 50.8 124.684 47.9817C124.684 45.0539 124.711 44.8077 125.183 44.9992C125.432 45.1087 126.375 45.437 127.263 45.738L128.844 46.2852V83.6347V120.984L128.234 120.847C127.873 120.793 126.403 120.41 124.961 119.999C121.272 118.987 115.753 118.002 111.537 117.619C107.211 117.236 98.7242 117.427 95.1465 118.029C93.7875 118.248 92.6227 118.412 92.5672 118.357C92.4008 118.193 96.6164 116.661 100.028 115.621C106.351 113.733 112.175 112.776 119.192 112.475C122.881 112.338 123.602 112.228 124.101 111.79C124.684 111.271 124.684 111.243 124.684 86.7267C124.684 63.6876 124.656 62.128 124.184 61.5807C123.519 60.7599 122.077 60.7325 121.272 61.526L120.662 62.128L120.579 85.1944L120.523 108.261L117.334 108.452C102.413 109.273 87.2145 114.581 75.8711 122.845C74.6508 123.748 73.5969 124.487 73.5137 124.487C73.4305 124.487 73.375 107.084 73.375 85.7963V47.1061L74.8449 45.8201C78.284 42.8376 84.0527 39.171 89.3223 36.6537C98.1973 32.4126 109.485 29.6763 119.47 29.2933L120.496 29.2659L120.579 40.1834ZM23.1758 69.1601C23.1758 93.2936 23.2035 94.8806 23.675 95.291C23.9246 95.5099 25.3945 96.0298 26.9477 96.4129C38.2078 99.2312 48.1645 104.868 56.6789 113.268C59.2027 115.758 63.3074 120.574 64.5555 122.516L65.0824 123.337L62.1426 122.133C57.0949 120.081 53.1289 118.987 47.166 118.002C44.7531 117.619 42.6453 117.509 37.1816 117.537C29.2773 117.537 25.4223 118.002 18.5996 119.726C16.4641 120.245 14.4395 120.765 14.1066 120.847L13.4687 120.984V83.6347V46.2852L15.3547 45.6559C18.9879 44.4246 21.9277 43.549 22.5656 43.5216L23.1758 43.4943V69.1601ZM43.727 121.75C50.3277 122.407 57.2336 124.295 62.5031 126.84L65.4707 128.263L39.4836 128.29L13.4687 128.317V126.84V125.39L16.4641 124.514C21.2621 123.146 25.3668 122.352 31.6348 121.641C33.6039 121.422 41.0922 121.504 43.727 121.75ZM115.087 122.161C118.887 122.763 122.354 123.502 125.876 124.514L128.844 125.39V126.84V128.317L102.857 128.29L76.8418 128.263L79.8094 126.84C84.857 124.404 91.8184 122.462 98.0586 121.778C101.442 121.395 111.787 121.641 115.087 122.161Z" fill="white" fill-opacity="0.5"/>
</svg>
