<svg width="120" height="99" viewBox="0 0 120 99" fill="none" xmlns="http://www.w3.org/2000/svg">
<path d="M118 82.4514H104.9L109.548 81.2054C110.614 80.9195 111.246 79.8235 110.962 78.7574L107.856 67.1673V67.1652L105.786 59.4371H105.784L90.2562 1.48346C89.9742 0.415414 88.8762 -0.218571 87.8081 0.069476L68.4881 5.24541C67.9781 5.38135 67.5401 5.71745 67.2741 6.17752C67.008 6.63549 66.938 7.18159 67.0741 7.69346L70.1801 19.2835V19.2854L71.3721 23.7355C69.7542 22.9215 67.9322 22.4516 66 22.4516H8.00015C7.28015 22.4516 6.61616 22.8395 6.26015 23.4655C5.90413 24.0934 5.91421 24.8614 6.28616 25.4795L8.59218 29.3235C10.4883 32.4854 10.4883 36.4154 8.59218 39.5774L6.86812 42.4513H2.00015C1.28015 42.4513 0.616164 42.8392 0.260148 43.4652C-0.0958674 44.0931 -0.0857893 44.8611 0.286164 45.4792L2.59218 49.3232C4.48827 52.4851 4.48827 56.4151 2.59218 59.5771L0.286164 63.421C-0.0857893 64.0391 -0.0958674 64.809 0.260148 65.435C0.616164 66.0631 1.28015 66.451 2.00015 66.451H6.86812L8.59218 69.3231C10.4883 72.485 10.4883 76.415 8.59218 79.577L6.86812 82.4509H2.00015C0.896242 82.4509 0.00022638 83.3469 0.00022638 84.4508V96.4508C0.00022638 97.5547 0.896242 98.4507 2.00015 98.4507H118C119.106 98.4507 120 97.5547 120 96.4508V84.4508C120 83.3474 119.106 82.4514 118 82.4514ZM92.6421 56.7496C92.4682 56.7955 92.2941 56.8175 92.122 56.8175C91.238 56.8175 90.4301 56.2276 90.1919 55.3356L83.9798 32.1517C83.6958 31.0857 84.3279 29.9877 85.3959 29.7036C86.4619 29.4137 87.5599 30.0496 87.844 31.1176L94.0561 54.2996C94.3402 55.3674 93.7083 56.4634 92.6421 56.7496ZM90.0162 16.0414L91.0521 19.9053L75.596 24.0472L74.562 20.1812L90.0162 16.0414ZM86.9102 4.44948L88.9823 12.1775L73.5263 16.3194L71.4562 8.59135L86.9102 4.44948ZM12.0223 27.2654L11.5343 26.4514H66.0002C69.6462 26.4514 72.6963 28.9175 73.6563 32.2574L73.8523 32.9914C73.9423 33.4653 74.0002 33.9514 74.0002 34.4514C74.0002 38.8614 70.4121 42.4513 66.0002 42.4513H11.5341L12.022 41.6373C14.6822 37.2034 14.6822 31.6974 12.0223 27.2654ZM62.0002 54.4515C62.0002 55.5554 61.1063 56.4514 60.0002 56.4514H16.0001C14.8962 56.4514 14.0001 55.5554 14.0001 54.4515C14.0001 53.3476 14.8962 52.4516 16.0001 52.4516H60C61.1062 52.4514 62.0002 53.3474 62.0002 54.4515ZM66.0002 82.4514H11.5341L12.022 81.6374C14.6819 77.2035 14.6819 71.6973 12.022 67.2653L11.5341 66.4513H66C70.4121 66.4513 73.9999 70.0393 73.9999 74.4512C74.0002 78.8614 70.4121 82.4514 66.0002 82.4514ZM74.9201 82.4514C76.8281 80.3253 78 77.5253 78 74.4514C78 68.7435 73.992 63.9634 68.644 62.7535C70.718 60.5956 72 57.6735 72 54.4515C72 51.2296 70.718 48.3055 68.644 46.1476C71.708 45.4555 74.3299 43.5936 76.012 41.0516L87.1059 82.4516H74.9201V82.4514ZM86.9841 66.5474L102.44 62.4053L103.474 66.2692L88.0202 70.4113L86.9841 66.5474ZM89.0541 74.2735L104.51 70.1335L106.58 77.8595L91.1262 82.0016L89.0541 74.2735Z" fill="white"/>
<path d="M66.0008 72.451H22.0008C20.8948 72.451 20.0009 73.347 20.0009 74.451C20.0009 75.5549 20.8948 76.4509 22.0008 76.4509H66.0008C67.1068 76.4509 68.0007 75.5549 68.0007 74.451C68.0009 73.347 67.1068 72.451 66.0008 72.451Z" fill="white"/>
<path d="M22.0008 36.451H66.0008C67.1068 36.451 68.0007 35.555 68.0007 34.4511C68.0007 33.3472 67.1068 32.4512 66.0008 32.4512H22.0008C20.8948 32.4512 20.0009 33.3472 20.0009 34.4511C20.0009 35.555 20.8948 36.451 22.0008 36.451Z" fill="white"/>
</svg>
