<svg width="120" height="112" viewBox="0 0 120 112" fill="none" xmlns="http://www.w3.org/2000/svg">
<path d="M109.274 10.6936C95.809 -2.75821 74.3667 -3.51976 60 8.41362C45.6328 -3.51976 24.1903 -2.75821 10.7257 10.6936C3.80906 17.6041 0 26.7922 0 36.5657C0 46.3392 3.80906 55.5273 10.7257 62.4377L60 111.667L109.274 62.4377C116.191 55.5273 120 46.3392 120 36.5657C120 26.7922 116.191 17.6041 109.274 10.6936ZM104.306 57.4582L60 101.724L15.6935 57.4582C10.1077 51.8773 7.03125 44.4575 7.03125 36.5657C7.03125 28.6739 10.1077 21.254 15.6935 15.6731C21.4601 9.9121 29.0372 7.03101 36.6141 7.03101C44.1837 7.03101 51.7533 9.90623 57.5177 15.6574L60 18.1341L62.4823 15.6574C74.0163 4.14946 92.7787 4.15626 104.306 15.6729C109.892 21.254 112.969 28.6739 112.969 36.5657C112.969 44.4575 109.892 51.8773 104.306 57.4582Z" fill="white"/>
<path d="M70.5469 39.1479V25.0756H49.4531V39.1479H35.3906V60.2565H49.4531V74.3289H70.5469V60.2565H84.6094V39.1479H70.5469ZM77.5781 53.2203H63.5156V67.2927H56.4844V53.2203H42.4219V46.1841H56.4844V32.1117H63.5156V46.1841H77.5781V53.2203Z" fill="white"/>
</svg>
