<svg width="120" height="120" viewBox="0 0 120 120" fill="none" xmlns="http://www.w3.org/2000/svg">
<path d="M28.125 24.6094V2.05945L2.05945 28.125H24.6094C26.5479 28.125 28.125 26.5479 28.125 24.6094Z" fill="white"/>
<path d="M31.6406 98.9062C37.4655 98.9062 42.1875 94.1842 42.1875 88.3594C42.1875 82.5345 37.4655 77.8125 31.6406 77.8125C25.8157 77.8125 21.0938 82.5345 21.0938 88.3594C21.0938 94.1842 25.8157 98.9062 31.6406 98.9062Z" fill="white"/>
<path d="M111.797 103.594H76.6406C72.1102 103.594 68.4375 107.266 68.4375 111.797V120H116.484C118.426 120 120 118.426 120 116.484V111.797C120 107.266 116.327 103.594 111.797 103.594Z" fill="white"/>
<path d="M79.7698 96.5625L76.6697 65.5634C76.1749 60.6148 77.805 55.6617 81.142 51.9743C83.843 48.9895 87.4807 47.0363 91.4062 46.3997V3.51562C91.4062 1.57406 89.8322 0 87.8906 0H35.1562V24.6094C35.1562 30.4249 30.4249 35.1562 24.6094 35.1562H0V116.484C0 118.426 1.57406 120 3.51562 120H61.4062V111.797C61.4062 103.397 68.2404 96.5625 76.6406 96.5625H79.7698ZM45.7031 14.0625H73.8281C75.7697 14.0625 77.3438 15.6366 77.3438 17.5781C77.3438 19.5197 75.7697 21.0938 73.8281 21.0938H45.7031C43.7616 21.0938 42.1875 19.5197 42.1875 17.5781C42.1875 15.6366 43.7616 14.0625 45.7031 14.0625ZM31.6406 105.938C21.948 105.938 14.0625 98.052 14.0625 88.3594C14.0625 78.6668 21.948 70.7812 31.6406 70.7812C41.3332 70.7812 49.2188 78.6668 49.2188 88.3594C49.2188 98.052 41.3332 105.938 31.6406 105.938ZM66.7969 63.2812H17.5781C15.6366 63.2812 14.0625 61.7072 14.0625 59.7656C14.0625 57.8241 15.6366 56.25 17.5781 56.25H66.7969C68.7384 56.25 70.3125 57.8241 70.3125 59.7656C70.3125 61.7072 68.7384 63.2812 66.7969 63.2812ZM66.7969 49.2188H17.5781C15.6366 49.2188 14.0625 47.6447 14.0625 45.7031C14.0625 43.7616 15.6366 42.1875 17.5781 42.1875H66.7969C68.7384 42.1875 70.3125 43.7616 70.3125 45.7031C70.3125 47.6447 68.7384 49.2188 66.7969 49.2188ZM73.8281 35.1562H45.7031C43.7616 35.1562 42.1875 33.5822 42.1875 31.6406C42.1875 29.6991 43.7616 28.125 45.7031 28.125H73.8281C75.7697 28.125 77.3438 29.6991 77.3438 31.6406C77.3438 33.5822 75.7697 35.1562 73.8281 35.1562Z" fill="white"/>
<path d="M83.666 64.8638L86.8359 96.5625H101.602L104.771 64.8638C105.396 58.6205 100.493 53.2031 94.2188 53.2031C87.9443 53.2031 83.0416 58.6205 83.666 64.8638Z" fill="white"/>
</svg>
