<svg width="30" height="42" viewBox="0 0 30 42" fill="none" xmlns="http://www.w3.org/2000/svg">
<path d="M16.6182 6.26689L18.1875 3.11785H24.9428V0H4.15717V3.11785H14.0303L12.4507 6.26689C5.94468 6.46438 0 7.76346 0 13.5107V31.0538C0 34.0574 2.4631 36.5724 5.38346 37.2376L2.07854 40.5321V41.5714H6.71372L10.8709 37.4142H18.7071L22.8643 41.5714H27.0215V40.5321L23.9036 37.4142H23.7373C27.25 37.4142 29.1 34.5562 29.1 31.0538V13.5107C29.1 7.7011 23.6749 6.44353 16.6182 6.26689ZM14.55 34.2964C12.8247 34.2964 11.4321 32.9038 11.4321 31.1785C11.4321 29.4533 12.8247 28.0607 14.55 28.0607C16.2752 28.0607 17.6678 29.4533 17.6678 31.1785C17.6678 32.9038 16.2752 34.2964 14.55 34.2964ZM24.9428 24.9428H4.15717V14.55H24.9428V24.9428Z" fill="white"/>
</svg>
